<?xml version="1.0" encoding="UTF-8"?>
<svg xmlns="http://www.w3.org/2000/svg" xmlns:xlink="http://www.w3.org/1999/xlink" version="1.1" id="Capa_1" x="0px" y="0px" viewBox="0 0 512 512" style="enable-background:new 0 0 512 512;" xml:space="preserve" width="512" height="512">
<g>
	<g>
		
			<rect id="XMLID_1052_" x="205.796" y="157.6" style="fill:none;stroke:#000000;stroke-width:20;stroke-linecap:round;stroke-linejoin:round;stroke-miterlimit:10;" width="60.245" height="247.004"/>
		
			<path id="XMLID_1050_" style="fill:none;stroke:#000000;stroke-width:20;stroke-linecap:round;stroke-linejoin:round;stroke-miterlimit:10;" d="&#10;&#9;&#9;&#9;M266.041,60.204h-120.49V442c0,33.137,26.863,60,60,60h0.49c33.137,0,60-26.863,60-60V60.204z"/>
		
			<path id="XMLID_1049_" style="fill:none;stroke:#000000;stroke-width:20;stroke-linecap:round;stroke-linejoin:round;stroke-miterlimit:10;" d="&#10;&#9;&#9;&#9;M271.061,60.204H140.531c-13.863,0-25.102-11.239-25.102-25.102l0,0c0-13.863,11.239-25.102,25.102-25.102h130.531&#10;&#9;&#9;&#9;c13.863,0,25.102,11.239,25.102,25.102l0,0C296.163,48.965,284.925,60.204,271.061,60.204z"/>
		
			<path id="XMLID_1048_" style="fill:none;stroke:#000000;stroke-width:20;stroke-linecap:round;stroke-linejoin:round;stroke-miterlimit:10;" d="&#10;&#9;&#9;&#9;M396.571,180.694h-60.245V40.122c0-16.636,13.486-30.122,30.122-30.122l0,0c16.636,0,30.122,13.486,30.122,30.122V180.694z"/>
		
			<line id="XMLID_1046_" style="fill:none;stroke:#000000;stroke-width:20;stroke-linecap:round;stroke-linejoin:round;stroke-miterlimit:10;" x1="366.449" y1="180.694" x2="366.449" y2="411.633"/>
		
			<path id="XMLID_1045_" style="fill:none;stroke:#000000;stroke-width:20;stroke-linecap:round;stroke-linejoin:round;stroke-miterlimit:10;" d="&#10;&#9;&#9;&#9;M391.551,471.878c0,16.636-11.239,30.122-25.102,30.122c-13.863,0-25.102-13.486-25.102-30.122&#10;&#9;&#9;&#9;c0-16.636,11.239-60.245,25.102-60.245C380.312,411.633,391.551,455.241,391.551,471.878z"/>
	</g>
</g>















</svg>