<?xml version="1.0" encoding="UTF-8"?>
<svg xmlns="http://www.w3.org/2000/svg" xmlns:xlink="http://www.w3.org/1999/xlink" version="1.1" id="Capa_1" x="0px" y="0px" viewBox="0 0 512 512" style="enable-background:new 0 0 512 512;" xml:space="preserve" width="512" height="512">
<g>
	<g>
		<path style="fill:none;stroke:#000000;stroke-width:30;stroke-linecap:round;stroke-linejoin:round;stroke-miterlimit:10;" d="&#10;&#9;&#9;&#9;M363.735,394.497c0,8.971-3.64,17.096-9.523,22.979c-5.883,5.883-14.009,9.523-22.979,9.523H180.767&#10;&#9;&#9;&#9;c-17.952,0-32.503-14.55-32.503-32.503c0-8.971,3.64-17.096,9.523-22.979c5.883-5.883,14.009-9.523,22.979-9.523h32.08&#10;&#9;&#9;&#9;c-8.971,0-17.096-3.64-22.979-9.523c-5.883-5.883-9.523-14.009-9.523-22.979c0-17.952,14.561-32.503,32.503-32.503h11.495&#10;&#9;&#9;&#9;c0,0,36.533-28.505,31.657-65.341c0,0,45.644,14.16,43.153,65.341c8.971,0,17.096,3.64,22.979,9.523&#10;&#9;&#9;&#9;c5.883,5.883,9.523,14.009,9.523,22.979c0,17.952-14.561,32.503-32.503,32.503h32.08&#10;&#9;&#9;&#9;C349.185,361.995,363.735,376.545,363.735,394.497z"/>
	</g>
	
		<rect x="61" y="15" style="fill:none;stroke:#000000;stroke-width:30;stroke-linecap:round;stroke-linejoin:round;stroke-miterlimit:10;" width="390" height="110"/>
	
		<rect x="140.32" y="15" style="fill:none;stroke:#000000;stroke-width:30;stroke-linecap:round;stroke-linejoin:round;stroke-miterlimit:10;" width="231.359" height="110"/>
	
		<rect x="216.571" y="15" style="fill:none;stroke:#000000;stroke-width:30;stroke-linecap:round;stroke-linejoin:round;stroke-miterlimit:10;" width="78.857" height="110"/>
	
		<polygon style="fill:none;stroke:#000000;stroke-width:30;stroke-linecap:round;stroke-linejoin:round;stroke-miterlimit:10;" points="&#10;&#9;&#9;421,497 91,497 81,125 431,125 &#9;"/>
</g>















</svg>