<?xml version="1.0" encoding="UTF-8"?>
<svg xmlns="http://www.w3.org/2000/svg" xmlns:xlink="http://www.w3.org/1999/xlink" version="1.1" id="Capa_1" x="0px" y="0px" viewBox="0 0 512 512" style="enable-background:new 0 0 512 512;" xml:space="preserve" width="512" height="512">
<g>
	
		<rect x="15.002" y="292.704" style="fill:none;stroke:#000000;stroke-width:30;stroke-miterlimit:10;" width="481.998" height="180.011"/>
	
		<rect x="75.006" y="352.708" style="fill:none;stroke:#000000;stroke-width:30;stroke-miterlimit:10;" width="220.273" height="60.004"/>
	<path style="fill:none;stroke:#000000;stroke-width:30;stroke-miterlimit:10;" d="M101.071,124.969h195.73&#10;&#9;&#9;c21.678,0,42.022-10.469,54.622-28.109l4.923-6.893l-4.923-6.893c-12.6-17.64-32.944-28.109-54.622-28.109h-195.73"/>
	
		<rect x="376.993" y="352.708" style="fill:none;stroke:#000000;stroke-width:30;stroke-miterlimit:10;" width="60.004" height="60.004"/>
	
		<line style="fill:none;stroke:#000000;stroke-width:30;stroke-miterlimit:10;" x1="101.071" y1="24.285" x2="101.071" y2="155.648"/>
	<path style="fill:none;stroke:#000000;stroke-width:30;stroke-miterlimit:10;" d="M101.071,54.965H50.002&#10;&#9;&#9;C30.671,54.965,15,70.636,15,89.967v0c0,19.331,15.671,35.002,35.002,35.002h51.069"/>
	<path style="fill:none;stroke:#000000;stroke-width:30;stroke-miterlimit:10;" d="M438.106,201.589&#10;&#9;&#9;c0,17.182-13.929,31.111-31.111,31.111c-17.182,0-31.111-13.929-31.111-31.111c0-20.466,31.111-43.111,31.111-43.111&#10;&#9;&#9;S438.106,181.124,438.106,201.589z"/>
	
		<line style="fill:none;stroke:#000000;stroke-width:30;stroke-miterlimit:10;" x1="215.145" y1="54.965" x2="215.145" y2="124.969"/>
	
		<line style="fill:none;stroke:#000000;stroke-width:30;stroke-miterlimit:10;" x1="356.347" y1="89.967" x2="406.995" y2="89.967"/>
</g>















</svg>