<?xml version="1.0" encoding="UTF-8"?>
<svg xmlns="http://www.w3.org/2000/svg" xmlns:xlink="http://www.w3.org/1999/xlink" version="1.1" id="Capa_1" x="0px" y="0px" viewBox="0 0 511.998 511.998" style="enable-background:new 0 0 511.998 511.998;" xml:space="preserve" width="512" height="512">
<g>
	<circle style="fill:none;stroke:#000000;stroke-width:30;stroke-miterlimit:10;" cx="368.014" cy="255.999" r="44.281"/>
	
		<line style="fill:none;stroke:#000000;stroke-width:30;stroke-miterlimit:10;" x1="412.295" y1="255.999" x2="449.356" y2="255.999"/>
	
		<line style="fill:none;stroke:#000000;stroke-width:30;stroke-miterlimit:10;" x1="399.326" y1="224.688" x2="419.409" y2="204.604"/>
	
		<line style="fill:none;stroke:#000000;stroke-width:30;stroke-miterlimit:10;" x1="336.692" y1="224.698" x2="316.608" y2="204.615"/>
	
		<line style="fill:none;stroke:#000000;stroke-width:30;stroke-miterlimit:10;" x1="336.713" y1="287.321" x2="316.619" y2="307.415"/>
	
		<line style="fill:none;stroke:#000000;stroke-width:30;stroke-miterlimit:10;" x1="399.319" y1="287.304" x2="419.42" y2="307.405"/>
	
		<line style="fill:none;stroke:#000000;stroke-width:30;stroke-miterlimit:10;" x1="286.672" y1="255.999" x2="323.733" y2="255.999"/>
	
		<line style="fill:none;stroke:#000000;stroke-width:30;stroke-miterlimit:10;" x1="368.014" y1="211.718" x2="368.014" y2="174.657"/>
	
		<line style="fill:none;stroke:#000000;stroke-width:30;stroke-miterlimit:10;" x1="368.014" y1="337.341" x2="368.014" y2="300.28"/>
	<path style="fill:none;stroke:#000000;stroke-width:30;stroke-miterlimit:10;" d="M368.014,384.991&#10;&#9;&#9;c71.234,0,128.98-57.746,128.98-128.98s-57.746-128.98-128.98-128.98c-59.095,0-108.905,39.744-124.165,93.959l-37.353,35.021&#10;&#9;&#9;l37.353,35.021C259.109,345.247,308.919,384.991,368.014,384.991z"/>
	<path style="fill:none;stroke:#000000;stroke-width:30;stroke-miterlimit:10;" d="M169.602,15v404.699&#10;&#9;&#9;c0,42.691-34.608,77.299-77.299,77.299h0c-42.691,0-77.299-34.608-77.299-77.299V15H169.602z"/>
	
		<line style="fill:none;stroke:#000000;stroke-width:30;stroke-miterlimit:10;" x1="15.004" y1="170.332" x2="169.602" y2="170.332"/>
	<line style="fill:none;stroke:#000000;stroke-width:30;stroke-miterlimit:10;" x1="15.004" y1="75.004" x2="169.602" y2="75.004"/>
	
		<line style="fill:none;stroke:#000000;stroke-width:30;stroke-miterlimit:10;" x1="77.302" y1="255.337" x2="77.302" y2="285.339"/>
	
		<line style="fill:none;stroke:#000000;stroke-width:30;stroke-miterlimit:10;" x1="107.304" y1="352.841" x2="107.304" y2="382.843"/>
</g>















</svg>