<svg clip-rule="evenodd" fill-rule="evenodd" stroke-linejoin="round" stroke-miterlimit="2" viewBox="0 0 510 510" xmlns="http://www.w3.org/2000/svg"><path d="m255.327 369.639-94.476-2.236c-1.868-.044-3.641-.833-4.924-2.192l-126.373-133.807c-2.653-2.809-2.526-7.243.282-9.895 2.809-2.653 7.243-2.526 9.896.282l124.369 131.685 176.553 4.179c3.862.091 6.923 3.301 6.832 7.164-.091 3.862-3.301 6.923-7.164 6.832l-51.136-1.21v50.298h-33.859zm-235.202-197.126c-7.075-7.426-6.79-19.199.637-26.274 7.426-7.075 19.199-6.79 26.274.636l144.336 151.502 167.395 2.029c5.206.063 10.148 2.307 13.621 6.187l117.878 131.684c6.841 7.642 6.191 19.401-1.452 26.242-7.642 6.841-19.401 6.19-26.242-1.452l-112.427-125.594-167.053-2.025c-5.006-.061-9.776-2.139-13.23-5.764zm145.67 281.857c0-10.842 8.789-19.631 19.631-19.631h173.662c10.842 0 19.631 8.789 19.631 19.631v9.573c0 1.408-.56 2.759-1.556 3.755-.995.995-2.346 1.555-3.754 1.555h-202.304c-1.408 0-2.759-.56-3.755-1.555-.995-.996-1.555-2.347-1.555-3.755zm113.08-276.44s-25.198 0-23.687 43.845c1.512 43.846-17.334 48.801-17.334 48.801-28.359-8.209-18.395-120.337-18.395-120.337-66.684-160.193 59.416-97.341 59.416-97.341s126.099-62.852 59.416 97.341c0 0 9.964 112.128-18.396 120.337 0 0-18.845-4.955-17.334-48.801 1.512-43.845-23.686-43.845-23.686-43.845zm-21.311-43.766v14.797c0 3.866 3.134 7 7 7h28.621c3.866 0 7-3.134 7-7v-14.797h14.797c3.866 0 7-3.134 7-7v-28.621c0-3.866-3.134-7-7-7h-14.797v-14.796c0-3.866-3.134-7-7-7h-28.621c-3.866 0-7 3.134-7 7v14.796h-14.796c-3.866 0-7 3.134-7 7v28.621c0 3.866 3.134 7 7 7zm14-7c0-3.866-3.134-7-7-7h-14.796v-14.621h14.796c3.866 0 7-3.134 7-7v-14.796h14.621v14.796c0 3.866 3.134 7 7 7h14.797v14.621h-14.797c-3.866 0-7 3.134-7 7v14.797h-14.621z"/></svg>