<svg id="Layer_1" viewBox="0 0 512 512" xmlns="http://www.w3.org/2000/svg" data-name="Layer 1"><path d="m473.859 52.506h-64.45c-1.279-4.026-3.674-7.615-7.055-10.456-5.244-4.406-11.847-6.186-18.596-5.004l-23.648 4.134c-1.967-19.639-18.59-35.024-38.738-35.024s-36.771 15.385-38.738 35.024l-23.647-4.133c-6.745-1.18-13.351.597-18.595 5.003-3.381 2.841-5.776 6.43-7.056 10.456h-64.45c-18.829 0-34.147 15.318-34.147 34.147v70.706c-4.766.664-9.542 1.623-14.308 2.9-30.37 8.138-55.753 27.615-71.474 54.844-15.72 27.229-19.896 58.95-11.759 89.319 5.484 20.469 16.365 39.066 31.467 53.779 3.754 3.656 4.69 9.052 2.469 13.695-6.94-.605-13.94 2.731-17.646 9.15l-45.372 78.587c-8.494 14.714-3.436 33.596 11.278 42.091 4.84 2.794 10.13 4.121 15.354 4.121 10.657 0 21.036-5.526 26.737-15.399l45.371-78.587c2.466-4.27 3.118-9.251 1.839-14.027-.57-2.127-1.51-4.085-2.735-5.834 2.911-4.24 8.046-6.125 13.093-4.704 5.16 1.455 10.402 2.544 15.686 3.275v70.311c0 18.828 15.318 34.146 34.147 34.146h304.973c18.828 0 34.146-15.318 34.146-34.146v-374.227c0-18.829-15.318-34.147-34.146-34.147zm-227.601 7c0-2.759 1.026-4.962 3.14-6.737 2.111-1.774 4.456-2.408 7.177-1.931l31.658 5.534c2.037.354 4.125-.207 5.708-1.537s2.497-3.292 2.497-5.359v-4.386c0-13.749 11.186-24.934 24.934-24.934s24.934 11.185 24.934 24.934v4.386c0 2.067.914 4.029 2.497 5.359 1.582 1.329 3.666 1.892 5.708 1.537l31.658-5.534c2.719-.478 5.066.156 7.179 1.932 2.111 1.774 3.138 3.978 3.138 6.737v27.366h-150.227v-27.366zm157.227 41.366c3.866 0 7-3.134 7-7v-.056h56.21v359.899h-290.646v-64.784c1.777-.389 3.549-.804 5.312-1.276 50.15-13.437 84.071-57.51 87.04-106.697h21.329l9.674 34.563c.856 3.058 3.645 5.14 6.836 5.112 3.174-.042 5.922-2.216 6.694-5.294l19.525-77.77 23.351 104.21c.706 3.155 3.482 5.415 6.715 5.469h.116c3.185 0 5.975-2.153 6.775-5.245l21.749-83.987 6.351 18.242c.979 2.813 3.632 4.699 6.61 4.699h37.12c3.866 0 7-3.134 7-7s-3.134-7-7-7h-32.146l-12.311-35.361c-1.015-2.913-3.837-4.824-6.896-4.693-3.082.126-5.718 2.254-6.491 5.239l-20.272 78.286-23.455-104.677c-.709-3.165-3.498-5.428-6.74-5.469-.03 0-.061 0-.091 0-3.205 0-6.006 2.18-6.788 5.295l-20.279 80.774-3.997-14.281c-.847-3.023-3.602-5.113-6.741-5.113h-26.629c-.466-7.788-1.719-15.642-3.815-23.465-11.758-43.882-46.973-75.337-88.545-84.504v-65.172h56.21v.056c0 3.866 3.134 7 7 7h164.227zm-254.747-14.219c0-11.109 9.038-20.147 20.147-20.147h63.373v13.31h-63.21c-3.866 0-7 3.134-7 7v69.963c-4.396-.423-8.839-.597-13.311-.516v-69.61zm-54.006 318.206-45.371 78.587c-4.636 8.027-14.94 10.789-22.967 6.153-8.028-4.635-10.789-14.938-6.153-22.966l45.371-78.587c1.238-2.144 3.987-2.881 6.132-1.643l21.346 12.323c1.031.596 1.771 1.564 2.083 2.729.312 1.164.155 2.372-.44 3.403zm.068-21.31-10.766-6.216c4.487-9.946 2.395-21.371-5.6-29.159-13.298-12.956-22.881-29.338-27.713-47.375-7.17-26.758-3.491-54.707 10.359-78.697s36.215-41.151 62.973-48.321c55.234-14.798 112.216 18.097 127.017 73.333s-18.097 112.216-73.333 127.016c-18.039 4.835-37.017 4.728-54.886-.312-10.742-3.027-21.681.871-28.052 9.73zm399.206 77.331c0 11.109-9.038 20.146-20.146 20.146h-304.974c-11.109 0-20.147-9.037-20.147-20.146v-69.235c4.438.079 8.882-.081 13.311-.505v69.575c0 3.866 3.134 7 7 7h304.645c3.866 0 7-3.134 7-7v-373.899c0-3.866-3.134-7-7-7h-63.21v-13.31h63.374c11.108 0 20.146 9.038 20.146 20.147v374.226zm-87.622-48.363c0 3.866-3.134 7-7 7h-157.069c-3.866 0-7-3.134-7-7s3.134-7 7-7h157.068c3.866 0 7 3.134 7 7zm1.046-34.054c0 3.866-3.134 7-7 7h-158.115c-3.866 0-7-3.134-7-7s3.134-7 7-7h158.114c3.866 0 7 3.134 7 7zm-1.046-209.392c0 3.866-3.134 7-7 7h-157.069c-3.866 0-7-3.134-7-7s3.134-7 7-7h157.068c3.866 0 7 3.134 7 7zm-164.068-41.054h158.114c3.866 0 7 3.134 7 7s-3.134 7-7 7h-158.115c-3.866 0-7-3.134-7-7s3.134-7 7-7zm-4.095 145.941c0-48.151-39.174-87.326-87.325-87.326s-87.326 39.174-87.326 87.326 39.175 87.325 87.326 87.325 87.325-39.174 87.325-87.325zm-160.651 0c0-40.432 32.894-73.326 73.326-73.326 38.07 0 69.446 29.166 72.983 66.326h-26.577c-2.893 0-5.487 1.779-6.529 4.477l-7.894 20.428-16.219-58.923c-.83-3.016-3.561-5.114-6.688-5.142-3.121.02-5.894 2.024-6.776 5.024l-10.039 34.136h-30.62c-3.866 0-7 3.134-7 7s3.134 7 7 7h35.857c3.105 0 5.839-2.046 6.716-5.025l4.579-15.569 15.323 55.67c.802 2.913 3.382 4.982 6.398 5.134.118.006.235.009.353.009 2.879 0 5.481-1.77 6.527-4.477l13.812-35.742h21.777c-3.537 37.159-34.913 66.325-72.983 66.325-40.433 0-73.326-32.894-73.326-73.325z"/></svg>