<svg id="Line" viewBox="0 0 32 32" xmlns="http://www.w3.org/2000/svg"><path d="m19.4746094 9.4746094c.1953125-.1953125.1953125-.512207 0-.7070312-.1953125-.1953125-.5117188-.1953125-.7070312 0-.9433594.9443359-2.5917969.9443359-3.5351562 0-.1953125-.1953125-.5117188-.1953125-.7070312 0-.1953125.1948242-.1953125.5117188 0 .7070312.6601562.6611328 1.5390625 1.0253906 2.4746094 1.0253906s1.8144531-.3642578 2.4746094-1.0253906z"/><path d="m13.1113281 10.1821289c-.1953125.1953125-.1953125.5117188 0 .7070312 1.0380859 1.0390625 2.4199219 1.6108398 3.8886719 1.6108398s2.8505859-.5717773 3.8886719-1.6108398c.1953125-.1953125.1953125-.5117188 0-.7070312s-.5117188-.1953125-.7070312 0c-.8496094.8500977-1.9794922 1.3178711-3.1816406 1.3178711s-2.3320312-.4677734-3.1816406-1.3178711c-.1953125-.1953125-.5117188-.1953125-.7070312 0z"/><path d="m27 1.5h-8c-.2763672 0-.5.2236328-.5.5s.2236328.5.5.5h8c1.3789062 0 2.5 1.121582 2.5 2.5v24.5h-27v-5h8.2929688l3.8535156 3.8535156c.09375.09375.2207031.1464844.3535156.1464844h13c.2763672 0 .5-.2236328.5-.5v-23c0-.8271484-.6728516-1.5-1.5-1.5h-14.5v-1h2.5c.2763672 0 .5-.2236328.5-.5s-.2236328-.5-.5-.5h-3c-.2763672 0-.5.2236328-.5.5v2c0 .2763672.2236328.5.5.5h1.5505371c.2452393 1.6916504 1.690979 3 3.4494629 3s3.2042236-1.3083496 3.4494629-3h6.5505371c.2753906 0 .5.2241211.5.5v14.5h-3.0921021c.0560303-.1571655.0921021-.3238525.0921021-.5 0-1.9296875-1.5703125-3.5-3.5-3.5h-19c-.2763672 0-.5.2236328-.5.5v14c0 .2763672.2236328.5.5.5h28c.2763672 0 .5-.2236328.5-.5v-25c0-1.9296875-1.5703125-3.5-3.5-3.5zm-10 5c-1.2070312 0-2.2177734-.8603516-2.4501953-2h4.9003906c-.2324219 1.1396484-1.2431641 2-2.4501953 2zm-8 17h-6.5v-3h17v1.5c0 .8271484-.6728516 1.5-1.5 1.5zm.5-5v1h-1v-1zm-2 1h-1v-1h1zm-2 0h-1v-1h1zm22 8h-12.2929688l-3-3h5.7929688c1.3789062 0 2.5-1.1210938 2.5-2.5v-1.5h7zm-25-11h18.5c1.3789062 0 2.5 1.1210938 2.5 2.5 0 .2753906-.2246094.5-.5.5h-12.5v-1.5c0-.2763672-.2236328-.5-.5-.5h-6c-.2763672 0-.5.2236328-.5.5v1.5h-1z"/><circle cx="5" cy="27" r=".5"/><circle cx="7" cy="27" r=".5"/><circle cx="9" cy="27" r=".5"/><path d="m26 25.5h-6c-.2763672 0-.5.2236328-.5.5s.2236328.5.5.5h6c.2763672 0 .5-.2236328.5-.5s-.2236328-.5-.5-.5z"/><path d="m22.5 24c0 .2763672.2236328.5.5.5h3c.2763672 0 .5-.2236328.5-.5s-.2236328-.5-.5-.5h-3c-.2763672 0-.5.2236328-.5.5z"/><circle cx="17" cy="2" r=".5"/></svg>